<svg version="1.1" preserveAspectRatio="none" xmlns="http://www.w3.org/2000/svg" width="500" height="500" viewBox="0 0 500 500"><rect width="100%" height="100%" fill="#F3F3F3" fill-opacity="1"/><svg viewBox="420.5849 502.4549 404.9984 121" width="333" height="99.48928193296565" x="83.5px" y="200.2554px" xmlns="http://www.w3.org/2000/svg" xmlns:xlink="http://www.w3.org/1999/xlink" preserveAspectRatio="none"><defs></defs><style>.companyName {fill:#1e1e1e;fill-opacity:1;}.icon1 {fill:#1E1E1E;fill-opacity:1;}.icon3-str {stroke:#848383;stroke-opacity:1;}.shapeStroke-str {stroke:#949393;stroke-opacity:1;}</style><g opacity="1" transform="rotate(0 420.5849 622.4549)">
<svg width="404.9984" height="1" x="420.5849" y="622.4549" version="1.1" preserveAspectRatio="none" viewBox="0 0 404.9984 1">
  <defs><rect x="0" y="0" width="404.9984" height="1" rx="0%" ry="0%" id="id-Fn9MWtLe1679929327726"></rect></defs><use class="icon1 shapeStroke-str" style="stroke-width:0;" xlink:href="#id-Fn9MWtLe1679929327726"></use>
</svg>
</g><g opacity="1" transform="rotate(0 420.5849 616.4549)">
<svg width="404.9984" height="2" x="420.5849" y="616.4549" version="1.1" preserveAspectRatio="none" viewBox="0 0 404.9984 2">
  <defs><rect x="0" y="0" width="404.9984" height="2" rx="0%" ry="0%" id="id-7UcwTXs11679929327726"></rect></defs><use class="icon1 shapeStroke-str" style="stroke-width:0;" xlink:href="#id-7UcwTXs11679929327726"></use>
</svg>
</g><g opacity="1" transform="rotate(0 440.5849 502.4549)">
<svg width="364.9984" height="100" x="440.5849" y="502.4549" version="1.1" preserveAspectRatio="none" viewBox="1.64 -25.52 95.24 26.0933">
  <g transform="matrix(1 0 0 1 0 0)" class="companyName"><path id="id-D6z1nYkh4" d="M27.96-25Q28.08-25 28.08-24.76Q28.08-24.52 27.96-24.52L27.96-24.52Q26.24-24.52 25.54-23.68Q24.84-22.84 24.84-20.80L24.84-20.80L24.84 0.44Q24.84 0.52 24.64 0.56Q24.44 0.60 24.36 0.52L24.36 0.52L6.28-21.72L5.60-22.48L5.60-4.16Q5.60-2.12 6.28-1.30Q6.96-0.48 8.64-0.48L8.64-0.48Q8.76-0.48 8.76-0.24Q8.76 0 8.64 0L8.64 0Q7.68 0 7.16-0.04L7.16-0.04L5.24-0.08L3.28-0.04Q2.76 0 1.72 0L1.72 0Q1.64 0 1.64-0.24Q1.64-0.48 1.72-0.48L1.72-0.48Q3.44-0.48 4.08-1.28Q4.72-2.08 4.72-4.16L4.72-4.16L4.72-23.32Q3.32-24.52 1.84-24.52L1.84-24.52Q1.72-24.52 1.72-24.76Q1.72-25 1.84-25L1.84-25L3.28-24.96Q3.72-24.92 4.52-24.92L4.52-24.92Q5.20-24.92 5.64-24.96Q6.08-25 6.32-25L6.32-25Q6.60-25 6.78-24.86Q6.96-24.72 7.20-24.28L7.20-24.28Q7.64-23.56 8.16-22.92L8.16-22.92L23.96-3.28L23.96-20.80Q23.96-22.84 23.32-23.68Q22.68-24.52 21-24.52L21-24.52Q20.92-24.52 20.92-24.76Q20.92-25 21-25L21-25L22.52-24.96Q23.72-24.88 24.44-24.88L24.44-24.88Q25.12-24.88 26.40-24.96L26.40-24.96L27.96-25Z M36.68-3.24Q36.68-2 36.94-1.44Q37.20-0.88 37.92-0.68Q38.64-0.48 40.24-0.48L40.24-0.48Q40.32-0.48 40.32-0.24Q40.32 0 40.24 0L40.24 0Q39.04 0 38.36-0.04L38.36-0.04L35.56-0.08L32.88-0.04Q32.16 0 30.92 0L30.92 0Q30.80 0 30.80-0.24Q30.80-0.48 30.92-0.48L30.92-0.48Q32.48-0.48 33.22-0.68Q33.96-0.88 34.24-1.46Q34.52-2.04 34.52-3.24L34.52-3.24L34.52-21.76Q34.52-22.96 34.24-23.52Q33.96-24.08 33.22-24.30Q32.48-24.52 30.92-24.52L30.92-24.52Q30.80-24.52 30.80-24.76Q30.80-25 30.92-25L30.92-25L32.88-24.96Q34.56-24.88 35.56-24.88L35.56-24.88Q36.68-24.88 38.36-24.96L38.36-24.96L40.24-25Q40.32-25 40.32-24.76Q40.32-24.52 40.24-24.52L40.24-24.52Q38.68-24.52 37.94-24.28Q37.20-24.04 36.94-23.46Q36.68-22.88 36.68-21.68L36.68-21.68L36.68-3.24Z M58.72-25.44Q60.68-25.44 62.66-25.04Q64.64-24.64 65.84-23.96L65.84-23.96Q66.16-23.76 66.26-23.58Q66.36-23.40 66.40-23L66.40-23L66.84-18.80Q66.84-18.68 66.64-18.66Q66.44-18.64 66.40-18.76L66.40-18.76Q64.96-24.60 57.16-24.60L57.16-24.60Q54.04-24.60 51.66-23.26Q49.28-21.92 47.96-19.48Q46.64-17.04 46.64-13.84L46.64-13.84Q46.64-10.08 48.28-6.90Q49.92-3.72 52.64-1.86Q55.36 0 58.52 0L58.52 0Q61.48 0 63.62-1.56Q65.76-3.12 66.76-6.32L66.76-6.32Q66.76-6.44 66.92-6.44L66.92-6.44Q67.04-6.44 67.14-6.40Q67.24-6.36 67.24-6.28L67.24-6.28L66.68-2Q66.60-1.52 66.50-1.38Q66.40-1.24 66.04-1.08L66.04-1.08Q62.48 0.48 58.40 0.48L58.40 0.48Q53.60 0.48 50.40-1.46Q47.20-3.40 45.68-6.42Q44.16-9.44 44.16-12.76L44.16-12.76Q44.16-16.40 46.20-19.30Q48.24-22.20 51.60-23.82Q54.96-25.44 58.72-25.44L58.72-25.44Z M96.72-0.48Q96.88-0.48 96.88-0.24Q96.88 0 96.72 0L96.72 0Q96 0 94.40-0.08L94.40-0.08Q92.88-0.16 92.16-0.16L92.16-0.16Q91.32-0.16 89.96-0.08L89.96-0.08Q88.68 0 88.04 0L88.04 0Q87.88 0 87.88-0.24Q87.88-0.48 88.04-0.48L88.04-0.48Q89.68-0.48 90.40-0.78Q91.12-1.08 91.12-1.80L91.12-1.80Q91.12-2.36 90.68-3.36L90.68-3.36L85.92-13.56L78.28-13.56L74.68-4.92Q74.12-3.56 74.12-2.68L74.12-2.68Q74.12-1.52 75.08-1Q76.04-0.48 78.08-0.48L78.08-0.48Q78.28-0.48 78.28-0.24Q78.28 0 78.08 0L78.08 0Q77.36 0 76.00-0.08L76.00-0.08Q74.48-0.16 73.36-0.16L73.36-0.16Q72.36-0.16 71.00-0.08L71.00-0.08Q69.80 0 69.04 0L69.04 0Q68.84 0 68.84-0.24Q68.84-0.48 69.04-0.48L69.04-0.48Q70.16-0.48 70.94-0.88Q71.72-1.28 72.42-2.32Q73.12-3.36 73.92-5.28L73.92-5.28L82.28-25.40Q82.36-25.52 82.54-25.52Q82.72-25.52 82.76-25.40L82.76-25.40L92.04-5.48Q92.96-3.44 93.68-2.38Q94.40-1.32 95.10-0.90Q95.80-0.48 96.72-0.48L96.72-0.48ZM81.88-22.24L78.60-14.32L85.60-14.32L81.88-22.24Z"/></g>
</svg>
</g></svg></svg>